<mxfile host="app.diagrams.net" modified="2023-04-23T09:59:09.688Z" agent="Mozilla/5.0 (Macintosh; Intel Mac OS X 10_15_7) AppleWebKit/537.36 (KHTML, like Gecko) Chrome/112.0.0.0 Safari/537.36" version="21.1.9" etag="3YCuYhWCt9UexyhftVZj" type="github">
  <diagram name="第 1 页" id="I15yWRnTDRZ2Ezbs0_Do">
    <mxGraphModel>
      <root>
        <mxCell id="0" />
        <mxCell id="1" parent="0" />
      </root>
    </mxGraphModel>
  </diagram>
</mxfile>
